<?xml version="1.0" encoding="UTF-8"?><svg id="Layer_1" xmlns="http://www.w3.org/2000/svg" xmlns:xlink="http://www.w3.org/1999/xlink" viewBox="0 0 383.86 358.77"><defs><style>.cls-1{font-size:13px;}.cls-1,.cls-2,.cls-3,.cls-4,.cls-5,.cls-6,.cls-7,.cls-8,.cls-9,.cls-10,.cls-11,.cls-12,.cls-13,.cls-14,.cls-15,.cls-16,.cls-17,.cls-18,.cls-19{fill:#fff;}.cls-1,.cls-2,.cls-3,.cls-10,.cls-11,.cls-15,.cls-20,.cls-16,.cls-18{font-weight:700;}.cls-1,.cls-4,.cls-6,.cls-9,.cls-10,.cls-12,.cls-13,.cls-15,.cls-16,.cls-17{font-style:italic;}.cls-1,.cls-10,.cls-15,.cls-16{font-family:HelveticaNeue-BoldItalic, 'Helvetica Neue';}.cls-2{font-size:5.4px;}.cls-2,.cls-20,.cls-18{font-family:HelveticaNeue-Bold, 'Helvetica Neue';}.cls-21{stroke-width:3px;}.cls-21,.cls-22,.cls-23,.cls-24,.cls-25,.cls-26,.cls-27,.cls-28,.cls-29,.cls-30,.cls-31,.cls-32{fill:none;}.cls-21,.cls-22,.cls-24,.cls-8,.cls-31,.cls-32{stroke:#fff;}.cls-21,.cls-33,.cls-5,.cls-34,.cls-35,.cls-36,.cls-37,.cls-38,.cls-39,.cls-40,.cls-41,.cls-42,.cls-43,.cls-24,.cls-8,.cls-25,.cls-26,.cls-27,.cls-28,.cls-29,.cls-30,.cls-31,.cls-32{stroke-miterlimit:10;}.cls-22{stroke-linecap:round;stroke-linejoin:round;stroke-width:.75px;}.cls-44{clip-path:url(#clippath);}.cls-23,.cls-45,.cls-46,.cls-14,.cls-47,.cls-48,.cls-49,.cls-50,.cls-51,.cls-52,.cls-53,.cls-54,.cls-55,.cls-56,.cls-57,.cls-58,.cls-59,.cls-60,.cls-61,.cls-62,.cls-63,.cls-19,.cls-64,.cls-65,.cls-66,.cls-67,.cls-68,.cls-69,.cls-70,.cls-71,.cls-72,.cls-73,.cls-74{stroke-width:0px;}.cls-3{font-size:12.3px;}.cls-3,.cls-11{font-family:Helvetica-BoldOblique, Helvetica;font-style:oblique;}.cls-4,.cls-6,.cls-9,.cls-12,.cls-13,.cls-17{font-family:HelveticaNeue-Italic, 'Helvetica Neue';}.cls-4,.cls-15{font-size:18px;}.cls-33{fill:#e72b4f;}.cls-33,.cls-5,.cls-34,.cls-35,.cls-36,.cls-37,.cls-38,.cls-39,.cls-40,.cls-41,.cls-42,.cls-43,.cls-25,.cls-26,.cls-27,.cls-28,.cls-29,.cls-30{stroke-width:2px;}.cls-33,.cls-34,.cls-37,.cls-38,.cls-40,.cls-41,.cls-42,.cls-43,.cls-25{stroke:#231916;}.cls-5{stroke:#242121;}.cls-34{fill:#f5b063;}.cls-35{fill:#f18e63;}.cls-35,.cls-36,.cls-39{stroke:#241a17;}.cls-36{fill:#e72111;}.cls-6{font-size:13.5px;}.cls-37{fill:#0598b4;}.cls-38{fill:#2ea7e0;}.cls-39{fill:#b1606e;}.cls-40{fill:#aace2d;}.cls-41{fill:#d0aa98;}.cls-42{fill:#dce45d;}.cls-43{fill:#e076ab;}.cls-7{font-family:HelveticaNeue, 'Helvetica Neue';font-size:9px;}.cls-24{stroke-width:5px;}.cls-8,.cls-32{stroke-width:2.4px;}.cls-75{clip-path:url(#clippath-1);}.cls-76{clip-path:url(#clippath-3);}.cls-77{clip-path:url(#clippath-2);}.cls-9{font-size:14.4px;}.cls-45{fill:#79cbea;opacity:.9;}.cls-10{font-size:12.9px;}.cls-78{letter-spacing:-.05em;}.cls-26{stroke:#3272b9;}.cls-27{stroke:#66c6e7;}.cls-28{stroke:#aecf2e;}.cls-29{stroke:#298b3b;}.cls-30{stroke:#e72b4f;}.cls-11{font-size:14.7px;}.cls-79{letter-spacing:-.11em;}.cls-12{font-size:21.6px;}.cls-13,.cls-20,.cls-16{font-size:19.5px;}.cls-46{fill:#d1d1d1;}.cls-46,.cls-14{fill-rule:evenodd;}.cls-31{stroke-width:8px;}.cls-20,.cls-57{fill:#231916;}.cls-17{font-size:19.5px;}.cls-18{font-size:24px;}.cls-47{fill:#f9d1c7;}.cls-48{fill:#f3a38d;}.cls-49{fill:#f6e0da;}.cls-50{fill:#f7c1b4;}.cls-51{fill:#8375b4;}.cls-52{fill:#4e51a0;}.cls-53{fill:#5b56a3;}.cls-54{fill:#7064ab;}.cls-55{fill:#9485be;}.cls-56{fill:#3b4ea0;}.cls-58{fill:#1f4ea0;}.cls-59{fill:#cab9da;}.cls-60{fill:#d8cae3;}.cls-61{fill:#aa97c7;}.cls-62{fill:#baa8d0;}.cls-63{fill:#72be70;}.cls-64{fill:#ededee;}.cls-65{fill:#f4ea2e;}.cls-66{fill:#e4dced;}.cls-67{fill:#ef846a;}.cls-68{fill:#f1947c;}.cls-69{fill:#e72121;}.cls-70{fill:#e83f2d;}.cls-71{fill:#ed7458;}.cls-72{fill:#ea523b;}.cls-73{fill:#eb6348;}.cls-74{fill:#f5b2a0;}.cls-80{letter-spacing:0em;}</style><clipPath id="clippath"><rect class="cls-23" x="17.07" y="17.95" width="61.03" height="54.5"/></clipPath><clipPath id="clippath-1"><rect class="cls-23" x="57.16" y="107.28" width="40.35" height="45.49"/></clipPath><clipPath id="clippath-2"><rect class="cls-23" x="103.56" y="112.27" width="33.65" height="33.7"/></clipPath><clipPath id="clippath-3"><rect class="cls-23" x="257.77" y="96.07" width="59.59" height="59.65" transform="translate(-4.8 240.21) rotate(-45)"/></clipPath></defs><polygon class="cls-39" points="239.89 273.96 193.86 247.39 193.86 194.24 239.89 167.66 285.92 194.24 285.92 247.39 239.89 273.96"/><text class="cls-6" transform="translate(194.24 247.26)"><tspan x="0" y="0">massConverter</tspan></text><path class="cls-19" d="m238.08,221.57v-4.28c0-.36-.01-.75-.07-1.13-.41-2.57-2.67-4.58-5.15-4.58-1.01.01-2.03.01-3.06.01h-11.41c-.32-.01-.61.02-.9.09-2.45.57-4.18,2.79-4.19,5.41v10.32c0,1.49.51,2.79,1.51,3.86,1.02,1.09,2.22,1.66,3.54,1.66,2.8.01,5.37.02,7.84.02s4.66-.01,6.85-.02c1.38,0,2.61-.6,3.65-1.78.95-1.07,1.4-2.36,1.4-3.93-.01-1.87-.01-3.79-.01-5.64h0Zm-16.45-15.84l7.15-7.42.02-.02h-5.03c-.09,0-.14-.01-.15-.01-.01-.01-.03-.07-.03-.2,0-.38.01-.73.05-1.07.13-1.35.46-2.62.96-3.76.63-1.48,1.55-2.8,2.73-3.9,1.04-.98,2.2-1.74,3.42-2.24,1.15-.46,2.17-.69,3.21-.76l.97-.05h.01v-4.45l-1.11.08c-.67.04-1.26.12-1.79.22-2.9.59-5.47,1.93-7.62,3.99-2.17,2.05-3.69,4.62-4.52,7.61-.37,1.3-.55,2.71-.56,4.18,0,.14-.01.26-.04.34-.02.01-.09.03-.29.03h-4.5l7.11,7.43Zm42.76-15.09v-3.24c-.01-.31-.03-.58-.06-.86-.36-2.55-2.66-4.62-5.11-4.62-4.8-.01-9.68-.01-14.4-.01-.3,0-.6.03-.92.09-2.47.51-4.27,2.79-4.27,5.41v10.37c0,.31.02.56.05.8.34,2.59,2.65,4.69,5.16,4.69h.01c1.07-.01,2.13-.01,3.01-.01h11.27c.91.01,1.7-.19,2.4-.6,1.86-1.06,2.82-2.66,2.84-4.74.04-2.35.03-4.69.02-7.28h0Zm-8.05,18.5l-7.23,7.41-.02.02h5.03c.23,0,.26,0,.26.33.01.94-.13,1.95-.43,3.09-.63,2.39-1.93,4.43-3.83,6.03-1.23,1.04-2.62,1.78-4.13,2.18-.75.2-1.31.32-1.95.35l-.99.04h-.01v4.56l1.21-.2c.1-.02.21-.02.32-.03l.36-.03c1.71-.18,3.35-.7,5.03-1.56,2.13-1.09,4.01-2.69,5.42-4.61,2.07-2.8,3.17-5.99,3.26-9.47.01-.38.04-.55.06-.62.13-.03.43-.03.53-.03h4.24l-7.11-7.43Zm0,0"/><polygon class="cls-33" points="47.03 107.45 1 80.88 1 27.73 47.03 1.16 93.05 27.73 93.05 80.88 47.03 107.45"/><text class="cls-17" transform="translate(9.39 86.56)"><tspan x="0" y="0">tidyMass</tspan></text><g class="cls-44"><path class="cls-19" d="m73.06,17.99H21.89c-2.68,0-4.83,2.15-4.83,4.83v33.46c0,2.68,2.15,4.83,4.83,4.83h51.35c2.68,0,4.83-2.15,4.83-4.83V22.82c-.18-2.68-2.33-4.83-5.01-4.83h0Zm-25.59,40.62c-1.25,0-2.51-1.07-2.51-2.51s1.07-2.5,2.51-2.5c1.25,0,2.5,1.07,2.5,2.5s-1.25,2.51-2.5,2.51h0Zm26.84-6.98H20.64v-29.88h53.68v29.88Zm0,0"/></g><rect class="cls-19" x="43.36" y="60.39" width="8.41" height="10.74"/><path class="cls-19" d="m64.83,72.38H30.12v-.89c0-2.15,1.79-3.76,3.76-3.76h27.02c2.15,0,3.76,1.79,3.76,3.76.18,0,.18.89.18.89h0Zm0,0"/><rect class="cls-19" x="21.13" y="22.3" width="52.62" height="28.63"/><path class="cls-27" d="m21.96,50.05h1.57s1.77-34.99,3.73,0h1.47"/><path class="cls-28" d="m28.74,50.05h1.99s2.24-47.36,4.72,0h1.86"/><path class="cls-26" d="m37.32,50.05h2.13s2.4-34.99,5.06,0h2"/><path class="cls-29" d="m46.47,50.05h2.16s2.43-58.93,5.13,0h2.03"/><line class="cls-30" x1="56.51" y1="50.05" x2="73.12" y2="50.05"/><line class="cls-30" x1="58.68" y1="49.76" x2="58.68" y2="31.86"/><line class="cls-30" x1="63.7" y1="49.89" x2="63.7" y2="42.03"/><line class="cls-30" x1="67.77" y1="49.89" x2="67.77" y2="33.62"/><line class="cls-30" x1="71.83" y1="50.03" x2="71.83" y2="24.4"/><polygon class="cls-43" points="142.9 107.46 96.87 80.88 96.87 27.73 142.9 1.15 188.93 27.73 188.93 80.88 142.9 107.46"/><text class="cls-9" transform="translate(102.32 83.55)"><tspan x="0" y="0">massDataset</tspan></text><rect class="cls-69" x="114.89" y="36.57" width="4.98" height="4.98"/><rect class="cls-22" x="114.89" y="36.57" width="4.98" height="4.98"/><rect class="cls-70" x="114.89" y="41.55" width="4.98" height="4.98"/><rect class="cls-22" x="114.89" y="41.55" width="4.98" height="4.98"/><rect class="cls-72" x="114.89" y="46.53" width="4.98" height="4.98"/><rect class="cls-22" x="114.89" y="46.53" width="4.98" height="4.98"/><rect class="cls-73" x="114.89" y="51.52" width="4.98" height="4.98"/><rect class="cls-22" x="114.89" y="51.52" width="4.98" height="4.98"/><rect class="cls-71" x="114.89" y="56.5" width="4.98" height="4.98"/><rect class="cls-22" x="114.89" y="56.5" width="4.98" height="4.98"/><rect class="cls-67" x="119.88" y="36.57" width="4.98" height="4.98"/><rect class="cls-22" x="119.88" y="36.57" width="4.98" height="4.98"/><rect class="cls-68" x="119.88" y="41.55" width="4.98" height="4.98"/><rect class="cls-22" x="119.88" y="41.55" width="4.98" height="4.98"/><rect class="cls-48" x="119.88" y="46.53" width="4.98" height="4.98"/><rect class="cls-22" x="119.88" y="46.53" width="4.98" height="4.98"/><rect class="cls-74" x="119.88" y="51.52" width="4.98" height="4.98"/><rect class="cls-22" x="119.88" y="51.52" width="4.98" height="4.98"/><rect class="cls-50" x="119.88" y="56.5" width="4.98" height="4.98"/><rect class="cls-22" x="119.88" y="56.5" width="4.98" height="4.98"/><rect class="cls-47" x="124.86" y="36.57" width="4.98" height="4.98"/><rect class="cls-22" x="124.86" y="36.57" width="4.98" height="4.98"/><rect class="cls-49" x="124.86" y="41.55" width="4.98" height="4.98"/><rect class="cls-22" x="124.86" y="41.55" width="4.98" height="4.98"/><rect class="cls-64" x="124.86" y="46.53" width="4.98" height="4.98"/><rect class="cls-22" x="124.86" y="46.53" width="4.98" height="4.98"/><rect class="cls-66" x="124.86" y="51.52" width="4.98" height="4.98"/><rect class="cls-22" x="124.86" y="51.52" width="4.98" height="4.98"/><rect class="cls-60" x="124.86" y="56.5" width="4.98" height="4.98"/><rect class="cls-22" x="124.86" y="56.5" width="4.98" height="4.98"/><rect class="cls-59" x="129.84" y="36.57" width="4.98" height="4.98"/><rect class="cls-22" x="129.84" y="36.57" width="4.98" height="4.98"/><rect class="cls-62" x="129.84" y="41.55" width="4.98" height="4.98"/><rect class="cls-22" x="129.84" y="41.55" width="4.98" height="4.98"/><rect class="cls-61" x="129.84" y="46.53" width="4.98" height="4.98"/><rect class="cls-22" x="129.84" y="46.53" width="4.98" height="4.98"/><rect class="cls-55" x="129.84" y="51.52" width="4.98" height="4.98"/><rect class="cls-22" x="129.84" y="51.52" width="4.98" height="4.98"/><rect class="cls-51" x="129.84" y="56.5" width="4.98" height="4.98"/><rect class="cls-22" x="129.84" y="56.5" width="4.98" height="4.98"/><rect class="cls-54" x="134.83" y="36.57" width="4.98" height="4.98"/><rect class="cls-22" x="134.83" y="36.57" width="4.98" height="4.98"/><rect class="cls-53" x="134.83" y="41.55" width="4.98" height="4.98"/><rect class="cls-22" x="134.83" y="41.55" width="4.98" height="4.98"/><rect class="cls-52" x="134.83" y="46.53" width="4.98" height="4.98"/><rect class="cls-22" x="134.83" y="46.53" width="4.98" height="4.98"/><rect class="cls-56" x="134.83" y="51.52" width="4.98" height="4.98"/><rect class="cls-22" x="134.83" y="51.52" width="4.98" height="4.98"/><rect class="cls-58" x="134.83" y="56.5" width="4.98" height="4.98"/><rect class="cls-22" x="134.83" y="56.5" width="4.98" height="4.98"/><text class="cls-2" transform="translate(117.56 27.02)"><tspan x="0" y="0">Sample</tspan><tspan x="-5.25" y="6.48">Information</tspan></text><text class="cls-2" transform="translate(104.32 58.97) rotate(-90)"><tspan class="cls-78" x="0" y="0">V</tspan><tspan x="3.1" y="0">ariable</tspan><tspan x="-4.6" y="6.48">Information</tspan></text><path class="cls-19" d="m150.73,46.19c.04-.05.12-.06.17-.02l3.41,2.53s.03.02.04.04h0s.06.11.05.18c0,.06-.04.12-.09.16l-3.41,2.53s-.02.07-.05.09c-.05.04-.13.03-.17-.02-.02-.02-.03-.06-.02-.09,0-.03.02-.06.05-.08v-1.2s.02-.07.05-.09l1.79-1.33-1.79-1.33s-.05-.06-.05-.09v-1.2s0-.05.03-.07h0Zm-6.62-.05c.07,0,.12.05.12.12v1.2s-.02.07-.05.09l-1.79,1.33,1.79,1.33s.05.06.05.09v1.2s0,.05-.03.07c-.04.05-.12.06-.17.02l-3.41-2.54c-.06-.04-.1-.11-.1-.19s.04-.14.1-.19l3.41-2.53s.05-.03.08-.02h0Zm0,0"/><path class="cls-19" d="m149.79,43.81h-1.05c-.05,0-.1.03-.12.08h0s-3.6,9.94-3.6,9.94c-.01.03,0,.06,0,.09.01.03.04.05.07.06.01,0,.03,0,.04,0h1.05c.05,0,.1-.03.12-.08h0s.01-.03.01-.03l3.59-9.91s0-.06,0-.09c-.02-.03-.04-.05-.07-.06-.01,0-.03,0-.04,0h0Zm0,0"/><path class="cls-46" d="m171.32,58.37c-8.46,0-15.31-4.59-15.31-10.25s6.85-10.25,15.31-10.25,15.31,4.59,15.31,10.25-6.85,10.25-15.31,10.25Zm2.34-16.5c-6.43,0-11.64,3.14-11.64,7.01s5.21,7.01,11.64,7.01,11.17-2.15,11.17-7.01-4.74-7.01-11.17-7.01Z"/><path class="cls-14" d="m179.33,53.74s.93.28,1.47.55c.19.09.51.28.74.53.23.24.34.49.34.49l3.65,6.16h-5.9s-2.76-5.18-2.76-5.18c0,0-.57-.97-.91-1.25-.29-.23-.41-.32-.7-.32h-1.4v6.75s-5.22,0-5.22,0v-17.24h10.49s4.78.09,4.78,4.63-4.56,4.88-4.56,4.88Zm-2.27-5.77h-3.16s0,2.93,0,2.93h3.16s1.47,0,1.47-1.49-1.47-1.44-1.47-1.44Z"/><polygon class="cls-37" points="190.67 190.64 144.64 164.06 144.64 110.91 190.67 84.34 236.7 110.91 236.7 164.06 190.67 190.64"/><text class="cls-11" transform="translate(143.82 163.59)"><tspan x="0" y="0">massCleaner</tspan></text><path class="cls-65" d="m202.92,145.13c-1.67,0-3.02,1.35-3.02,3.02s1.35,3.02,3.02,3.02,3.02-1.35,3.02-3.02c0-.8-.32-1.57-.89-2.14-.57-.57-1.34-.89-2.14-.89h0Zm9.05-7.04c-1.23,0-2.34.73-2.81,1.86-.47,1.13-.22,2.44.65,3.3.87.87,2.17,1.13,3.31.65,1.13-.47,1.87-1.58,1.86-2.81-.01-1.66-1.36-3-3.02-3h.02Zm-.95,9.05c-1.67,0-3.02,1.35-3.02,3.02s1.35,3.02,3.02,3.02,3.02-1.35,3.02-3.02c0-.8-.32-1.57-.89-2.14-.57-.57-1.34-.89-2.14-.89h0Zm-.34-36.17l4.29-4.37-8.72-8.72-4.37,4.37c-1.61-1.6-4.21-1.6-5.81,0l14.53,14.53c1.6-1.61,1.6-4.21,0-5.81h.08Zm-52.7,7.91c-.8-.16-1.61.19-2.05.88-.44.69-.41,1.57.07,2.23,1.43,2.39,2.98,4.7,4.65,6.92l10.83-.89c1.23,0,1.52,1.32.49,2.27l-5.77,5.3c2.32,2.51,4.79,4.87,7.41,7.06l6.21-1.98c1.17-.36,1.7.93.89,2.08l-2.45,3.42c1.6,1.15,3.3,2.23,5.08,3.28,2.35,1.38,5.35.85,7.08-1.26,7.21-8.85,12.59-19.04,15.81-29.99l-11.6-11.58s-18.88,13.84-36.73,12.26l.08.02Zm0,0"/><polygon class="cls-35" points="94.6 190.64 48.57 164.06 48.57 110.91 94.6 84.34 140.63 110.91 140.63 164.06 94.6 190.64"/><text class="cls-10" transform="translate(49.62 163.73)"><tspan x="0" y="0">massDatabase</tspan></text><g class="cls-75"><path class="cls-5" d="m88.19,141.18v-5.49h3.79v5.49h5.49v3.79h-5.49v5.49h-3.79v-5.49h-5.49v-3.79h5.49Zm8.7-8.2h-17.03v3.95h-22.71v-13.82h39.73v9.88h0Zm-17.03,5.92v13.82h-22.71v-13.82h22.71Zm-22.71-31.59h39.73v13.82h-39.73v-13.82Zm5.96,5.92v1.98h3.97v-1.98h-3.97Zm0,15.79v1.98h3.97v-1.98h-3.97Zm0,15.79v1.98h3.97v-1.98h-3.97Zm0,0"/></g><g class="cls-77"><path class="cls-5" d="m137.11,114.12l-1.75-1.75c-.13-.13-.34-.13-.47,0l-3.14,3.14c-1.36-.92-2.98-1.42-4.62-1.41-2.11,0-4.22.8-5.84,2.42l-4.2,4.2c-.13.13-.13.34,0,.47l11.21,11.21c.07.07.15.09.23.09.08,0,.17-.03.23-.09l4.2-4.2c2.79-2.8,3.21-7.18,1-10.45l3.14-3.14c.13-.13.13-.34,0-.47h0Zm-13.97,16.41c-.13-.13-.34-.13-.47,0l-2.74,2.75-3.73-3.72,2.75-2.75c.13-.13.13-.34,0-.47l-1.5-1.5c-.13-.13-.34-.13-.47,0l-2.75,2.75-1.77-1.77c-.06-.06-.15-.1-.23-.09-.09,0-.17.03-.24.09l-4.2,4.2c-2.79,2.8-3.21,7.18-1,10.45l-3.14,3.14c-.13.13-.13.34,0,.47l1.75,1.75c.07.07.15.1.23.1.09,0,.17-.03.23-.1l3.14-3.14c1.36.92,2.98,1.42,4.62,1.41,2.11,0,4.22-.8,5.84-2.42l4.2-4.2c.13-.13.13-.34,0-.47l-1.77-1.77,2.75-2.75c.13-.13.13-.34,0-.47l-1.51-1.49Zm0,0"/></g><polygon class="cls-34" points="239.29 107.46 193.26 80.88 193.26 27.73 239.29 1.15 285.32 27.73 285.32 80.88 239.29 107.46"/><path class="cls-19" d="m243.54,53.45c-.12,0-.24-.03-.36-.08-.1-.05-.13-.16-.21-.22-.34-.12-.7-.22-1.09-.22-1.8,0-3.27,1.47-3.27,3.27,0,1.81,1.47,3.27,3.27,3.27,1.81,0,3.27-1.47,3.27-3.27,0-1.18-.67-2.18-1.61-2.75"/><path class="cls-19" d="m250.6,41.11c-.23,0-.43-.11-.65-.13l-4.91,10.9c1.35.99,2.28,2.52,2.28,4.32,0,3.01-2.45,5.45-5.46,5.46-3.01,0-5.45-2.44-5.46-5.46,0-3.01,2.45-5.45,5.46-5.45.42,0,.79.15,1.19.24l4.83-10.71c-1.28-.75-2.17-1.98-2.5-3.46l-12.35-1.6c-.78,2.05-2.74,3.52-5.06,3.52-3.01,0-5.46-2.45-5.46-5.46s2.45-5.45,5.46-5.45c.68,0,1.32.16,1.93.39l6.53-10.13c-1.05-1.02-1.64-2.42-1.65-3.89,0-3.01,2.45-5.45,5.45-5.45s5.46,2.45,5.46,5.45c0,3.01-2.45,5.45-5.46,5.46-.68,0-1.34-.14-1.97-.4l-6.52,10.11c1,.97,1.59,2.3,1.64,3.69l11.98,1.55c.51-2.49,2.61-4.4,5.24-4.4,3.01,0,5.45,2.44,5.45,5.45,0,3.01-2.44,5.45-5.46,5.46"/><path class="cls-19" d="m240.24,17.47c1.81,0,3.27-1.47,3.27-3.27s-1.47-3.27-3.27-3.27-3.27,1.47-3.27,3.27,1.48,3.27,3.27,3.27m-12.27,12.54c-1.81,0-3.27,1.47-3.27,3.27,0,1.81,1.47,3.27,3.27,3.27,1.81,0,3.27-1.47,3.27-3.27,0-1.81-1.47-3.27-3.27-3.27m22.63,2.38c-1.81,0-3.27,1.47-3.27,3.27,0,1.81,1.47,3.27,3.27,3.27,1.81,0,3.27-1.47,3.27-3.27,0-1.81-1.46-3.27-3.27-3.27"/><text class="cls-3" transform="translate(192.74 80.41)"><tspan x="0" y="0">massProcesser</tspan></text><polygon class="cls-40" points="287.11 191.24 241.08 164.66 241.08 111.51 287.11 84.93 333.14 111.51 333.14 164.66 287.11 191.24"/><text class="cls-13" transform="translate(251.87 170.65)"><tspan x="0" y="0">massQC</tspan></text><g class="cls-76"><path class="cls-19" d="m308.58,146.96c5.81-5.81,5.81-15.24,0-21.05-5.81-5.81-15.24-5.81-21.05,0-5.81,5.81-15.24,5.81-21.05,0-5.81-5.81-5.81-15.24,0-21.05,11.63-11.63,30.47-11.63,42.1,0s11.63,30.47,0,42.1h0Zm0,0"/><path class="cls-57" d="m266.48,104.85c-5.81,5.81-5.81,15.24,0,21.05,5.81,5.81,15.24,5.81,21.05,0,5.81-5.81,15.24-5.81,21.05,0,5.81,5.81,5.81,15.24,0,21.05-11.63,11.63-30.47,11.63-42.1,0-11.63-11.63-11.63-30.47,0-42.1h0Zm0,0"/></g><text class="cls-20" transform="translate(269.15 120.69)"><tspan x="0" y="0">Q</tspan></text><text class="cls-18" transform="translate(289.36 146.13)"><tspan x="0" y="0">c</tspan></text><polygon class="cls-42" points="143.82 273.96 97.79 247.39 97.79 194.24 143.82 167.66 189.85 194.24 189.85 247.39 143.82 273.96"/><text class="cls-15" transform="translate(103.08 251.28)"><tspan x="0" y="0">massStat</tspan></text><text class="cls-7" transform="translate(109.58 195.48)"><tspan x="0" y="0">01001010101001</tspan></text><text class="cls-7" transform="translate(98.8 204)"><tspan x="0" y="0">011001010110100010</tspan></text><text class="cls-7" transform="translate(98.85 212.99)"><tspan x="0" y="0">010010101010101110</tspan></text><text class="cls-7" transform="translate(98.85 221.87)"><tspan x="0" y="0">110101001110100111</tspan></text><text class="cls-7" transform="translate(98.85 230.74)"><tspan x="0" y="0">101010100011101010</tspan></text><path class="cls-45" d="m140.44,194.85c-2.03-3.51-6.53-4.72-9.98-2.72-.26.12-25.57,12.46-24.12,37.52.01.24.14.46.34.6.19.13,4.75,3.21,12.53,4.48,7.15,1.17,18.48.94,31.86-6.79,1.69-.97,2.92-2.58,3.42-4.46.51-1.88.25-3.89-.73-5.58l-4.98-8.62,7.62-4.4.52.9c.21.36.66.49,1.03.3l17.74-9.04c1.43-.82,2.47-2.18,2.89-3.77.43-1.6.21-3.28-.62-4.71-1.71-2.97-5.52-3.98-8.52-2.25l-16.67,10.82c-.35.23-.46.68-.25,1.04l.52.9-7.62,4.4-4.98-8.62Zm2.64,25.76"/><polygon class="cls-36" points="288.94 357.62 242.91 331.04 242.91 277.89 288.94 251.31 334.97 277.89 334.97 331.04 288.94 357.62"/><text class="cls-4" transform="translate(248.01 334.13)"><tspan x="0" y="0">mass</tspan><tspan class="cls-79" x="41.99" y="0">T</tspan><tspan class="cls-80" x="50.33" y="0">ools</tspan></text><path class="cls-19" d="m277.42,278.65l34.11,34.11-4.59,4.59-33.42-33.42c1.19-1.83,2.49-3.6,3.9-5.28h0Zm0,0"/><path class="cls-19" d="m294.48,262.25c-6.74,2.55-12.99,7.04-18.27,12.95-2.2,2.46-4.23,5.17-6.05,8.09-2.89,4.63-5.25,9.79-6.94,15.33l-10.06-2.81c7.21-20.23,24.48-33.83,41.32-33.56h0Zm0,0"/><path class="cls-19" d="m303.39,260.54l-.07-.06c-.12-.08-.25-.14-.38-.18-.03-.01-.06-.02-.08-.03-.03,0-.06-.02-.09-.03h0c-10.17-2.81-21.29-.61-31.33,6.21-9.9,6.73-17.59,17.2-21.69,29.52-.04.13-.09.26-.13.39-.28.8.11,1.67.89,2l.06.02s.07.02.1.03l.13.04h.02s13.04,3.66,13.04,3.66h.03c.14.05.29.07.43.07.18,0,.35-.03.51-.09.07-.02.13-.05.19-.08.4-.2.7-.55.82-.98.02-.05.02-.11.03-.16,0,.05-.01.09-.03.14,1.43-5.13,3.46-9.93,5.97-14.28l34.01,34.01c.62.62,1.63.62,2.25,0l6.84-6.84c.3-.3.47-.7.47-1.13,0-.42-.17-.83-.47-1.13l-35.38-35.38c6.57-6.97,14.62-11.62,23.09-12.88,0,0,.01,0,.02,0,.04,0,.09-.02.13-.02.04,0,.08-.02.13-.04l.12-.04s.07-.03.1-.05c.03-.01.06-.03.09-.05.04-.02.07-.04.1-.07l.07-.05s.04-.03.06-.05c.03-.03.06-.05.09-.08.02-.02.05-.05.07-.08.04-.04.07-.08.1-.13.03-.04.05-.08.08-.12.02-.03.03-.06.05-.09.09-.18.15-.37.17-.57,0-.03,0-.06,0-.09,0-.03,0-.07,0-.1,0-.03,0-.06,0-.1,0-.03,0-.06-.01-.1,0-.03,0-.05-.02-.08,0-.04-.01-.07-.02-.1,0-.03-.02-.07-.03-.1h0c-.06-.2-.17-.38-.31-.53-.04-.05-.09-.1-.14-.14-.03-.02-.05-.05-.08-.07h0Zm-37.49,40.16s0-.1,0-.15c0,.05,0,.1,0,.15h0Zm0-.31s-.02-.09-.03-.14c.01.05.03.09.03.14h0Zm-.07-.3s-.04-.09-.06-.13c.02.04.04.09.06.13h0Zm-.12-.28s-.06-.08-.08-.12c.03.04.06.08.08.12h0Zm-.17-.25s-.07-.07-.11-.11c.04.04.08.07.11.11h0Zm6.81-16.73s0,0,0,0c0,0,0,0,0,0h0Zm39.2,29.94l-4.59,4.59-33.42-33.42c1.19-1.83,2.49-3.6,3.9-5.28l34.11,34.11h0Zm-35.32-37.56c-2.2,2.46-4.23,5.17-6.05,8.09-2.89,4.63-5.25,9.79-6.94,15.33l1.51.42s.01,0,.02,0c0,0-.01,0-.02,0l-1.51-.42-10.06-2.81c7.21-20.23,24.48-33.83,41.32-33.56-6.74,2.55-12.99,7.04-18.27,12.95h0Zm-10.9,24.14s-.1-.06-.15-.1c.05.03.1.06.15.1h0Zm0,0"/><path class="cls-19" d="m249.73,295.97c-.04.13-.09.26-.13.39-.28.8.11,1.67.89,2-.76-.29-1.18-1.1-.98-1.89.05-.18.12-.35.22-.5h0Zm.92,2.44l.13.04c-.08-.01-.16-.04-.23-.07.03.01.07.02.1.03h0Zm-.17-.05l.06.02s-.04-.01-.06-.02h0Zm0,0"/><polygon class="cls-38" points="336.83 273.96 290.8 247.39 290.8 194.24 336.83 167.66 382.86 194.24 382.86 247.39 336.83 273.96"/><polygon class="cls-23" points="336.83 273.96 290.8 247.39 290.8 194.24 336.83 167.66 382.86 194.24 382.86 247.39 336.83 273.96"/><line class="cls-31" x1="303.9" y1="226.41" x2="369.16" y2="226.41"/><line class="cls-31" x1="310.3" y1="200.97" x2="310.3" y2="226.41"/><line class="cls-31" x1="333.56" y1="189.41" x2="333.56" y2="226.41"/><line class="cls-31" x1="347.15" y1="212.52" x2="347.15" y2="226.41"/><line class="cls-31" x1="363.07" y1="195.19" x2="363.07" y2="226.41"/><text class="cls-12" transform="translate(309.44 255.16)"><tspan x="0" y="0">metID</tspan></text><polygon class="cls-63" points="47.28 273.96 1.25 247.39 1.25 194.24 47.28 167.66 93.31 194.24 93.31 247.39 47.28 273.96"/><polygon class="cls-25" points="47.28 273.96 1.25 247.39 1.25 194.24 47.28 167.66 93.31 194.24 93.31 247.39 47.28 273.96"/><path class="cls-32" d="m6.88,197.11c13.1,0,13.1,22.8,26.2,22.8s13.1-22.8,26.2-22.8,13.1,22.8,26.2,22.8"/><path class="cls-8" d="m8.78,197.01c0,1.05-.85,1.9-1.9,1.9s-1.9-.85-1.9-1.9.85-1.9,1.9-1.9,1.9.85,1.9,1.9Z"/><path class="cls-8" d="m87.38,219.71c0,1.05-.85,1.9-1.9,1.9s-1.9-.85-1.9-1.9.85-1.9,1.9-1.9,1.9.85,1.9,1.9Z"/><path class="cls-8" d="m34.28,219.71c0,1.05-.85,1.9-1.9,1.9s-1.9-.85-1.9-1.9.85-1.9,1.9-1.9,1.9.85,1.9,1.9Z"/><path class="cls-8" d="m61.08,197.01c0,1.05-.85,1.9-1.9,1.9s-1.9-.85-1.9-1.9.85-1.9,1.9-1.9,1.9.85,1.9,1.9Z"/><text class="cls-1" transform="translate(1.03 247.03)"><tspan x="0" y="0">metNormalizer</tspan></text><polygon class="cls-41" points="191.9 357.62 145.87 331.04 145.87 277.89 191.9 251.31 237.93 277.89 237.93 331.04 191.9 357.62"/><circle class="cls-19" cx="170.09" cy="277.01" r="8.1"/><circle class="cls-19" cx="208.56" cy="280.24" r="4.88"/><circle class="cls-19" cx="190.64" cy="301.91" r="12.45"/><line class="cls-21" x1="170.09" y1="277.01" x2="190.64" y2="301.91"/><line class="cls-24" x1="190.64" y1="301.91" x2="208.56" y2="280.24"/><line class="cls-21" x1="170.09" y1="277.01" x2="152.24" y2="273.8"/><line class="cls-21" x1="170.09" y1="277.01" x2="208.56" y2="280.24"/><line class="cls-21" x1="208.56" y1="280.24" x2="218.32" y2="266.56"/><line class="cls-21" x1="208.56" y1="280.24" x2="237.93" y2="297.71"/><line class="cls-21" x1="170.09" y1="277.01" x2="172.11" y2="262.74"/><text class="cls-16" transform="translate(153.11 334.36)"><tspan x="0" y="0">metPath</tspan></text></svg>