<?xml version="1.0" encoding="UTF-8"?><svg id="Layer_1" xmlns="http://www.w3.org/2000/svg" xmlns:xlink="http://www.w3.org/1999/xlink" viewBox="0 0 497.37 464.73"><defs><style>.cls-1{font-family:HelveticaNeue, 'Helvetica Neue';font-size:11.68px;}.cls-1,.cls-2,.cls-3,.cls-4,.cls-5,.cls-6,.cls-7,.cls-8,.cls-9,.cls-10,.cls-11,.cls-12,.cls-13,.cls-14,.cls-15,.cls-16,.cls-17,.cls-18,.cls-19{fill:#fff;}.cls-20{stroke-width:3px;}.cls-20,.cls-21,.cls-22,.cls-23,.cls-24,.cls-25,.cls-26,.cls-27,.cls-28,.cls-29,.cls-30,.cls-31{fill:none;}.cls-20,.cls-21,.cls-23,.cls-7,.cls-30,.cls-31{stroke:#fff;}.cls-20,.cls-32,.cls-6,.cls-33,.cls-34,.cls-35,.cls-36,.cls-37,.cls-38,.cls-39,.cls-40,.cls-41,.cls-42,.cls-23,.cls-7,.cls-24,.cls-25,.cls-26,.cls-27,.cls-28,.cls-29,.cls-30,.cls-31{stroke-miterlimit:10;}.cls-21{stroke-linecap:round;stroke-linejoin:round;stroke-width:.75px;}.cls-43{clip-path:url(#clippath);}.cls-22,.cls-44,.cls-45,.cls-15,.cls-46,.cls-47,.cls-48,.cls-49,.cls-50,.cls-51,.cls-52,.cls-53,.cls-54,.cls-55,.cls-56,.cls-57,.cls-58,.cls-59,.cls-60,.cls-61,.cls-62,.cls-18,.cls-63,.cls-64,.cls-65,.cls-66,.cls-67,.cls-68,.cls-69,.cls-70,.cls-71,.cls-72,.cls-73{stroke-width:0px;}.cls-74,.cls-2,.cls-3,.cls-4,.cls-5,.cls-10,.cls-11,.cls-14,.cls-19{font-weight:700;}.cls-74,.cls-3,.cls-17{font-size:25.3px;}.cls-74,.cls-11,.cls-19{font-family:HelveticaNeue-Bold, 'Helvetica Neue';}.cls-74,.cls-56{fill:#231916;}.cls-2,.cls-3,.cls-8,.cls-9,.cls-10,.cls-12,.cls-13,.cls-14,.cls-16,.cls-17{font-style:italic;}.cls-2,.cls-3,.cls-10,.cls-14{font-family:HelveticaNeue-BoldItalic, 'Helvetica Neue';}.cls-2,.cls-8{font-size:23.35px;}.cls-4{font-size:15.96px;}.cls-4,.cls-5{font-family:Helvetica-BoldOblique, Helvetica;font-style:oblique;}.cls-5{font-size:19.07px;}.cls-32{fill:#e72b4f;}.cls-32,.cls-6,.cls-33,.cls-34,.cls-35,.cls-36,.cls-37,.cls-38,.cls-39,.cls-40,.cls-41,.cls-42,.cls-24,.cls-25,.cls-26,.cls-27,.cls-28,.cls-29{stroke-width:2px;}.cls-32,.cls-33,.cls-36,.cls-37,.cls-39,.cls-40,.cls-41,.cls-42,.cls-24{stroke:#231916;}.cls-6{stroke:#242121;}.cls-33{fill:#f5b063;}.cls-34{fill:#f18e63;}.cls-34,.cls-35,.cls-38{stroke:#241a17;}.cls-35{fill:#e72111;}.cls-36{fill:#0598b4;}.cls-37{fill:#2ea7e0;}.cls-38{fill:#b1606e;}.cls-39{fill:#aace2d;}.cls-40{fill:#d0aa98;}.cls-41{fill:#dce45d;}.cls-42{fill:#e076ab;}.cls-23{stroke-width:5px;}.cls-7,.cls-31{stroke-width:2.4px;}.cls-75{clip-path:url(#clippath-1);}.cls-76{clip-path:url(#clippath-3);}.cls-77{clip-path:url(#clippath-2);}.cls-8,.cls-9,.cls-12,.cls-13,.cls-16,.cls-17{font-family:HelveticaNeue-Italic, 'Helvetica Neue';}.cls-9{font-size:17.51px;}.cls-10{font-size:16.73px;}.cls-44{fill:#79cbea;opacity:.9;}.cls-78{letter-spacing:-.05em;}.cls-11{font-size:31.13px;}.cls-12{font-size:18.68px;}.cls-25{stroke:#3272b9;}.cls-26{stroke:#66c6e7;}.cls-27{stroke:#aecf2e;}.cls-28{stroke:#298b3b;}.cls-29{stroke:#e72b4f;}.cls-79{letter-spacing:-.11em;}.cls-13{font-size:28.02px;}.cls-14{font-size:16.86px;}.cls-45{fill:#d1d1d1;}.cls-45,.cls-15{fill-rule:evenodd;}.cls-30{stroke-width:8px;}.cls-16{font-size:25.3px;}.cls-46{fill:#f9d1c7;}.cls-47{fill:#f3a38d;}.cls-48{fill:#f6e0da;}.cls-49{fill:#f7c1b4;}.cls-50{fill:#8375b4;}.cls-51{fill:#4e51a0;}.cls-52{fill:#5b56a3;}.cls-53{fill:#7064ab;}.cls-54{fill:#9485be;}.cls-55{fill:#3b4ea0;}.cls-57{fill:#1f4ea0;}.cls-58{fill:#cab9da;}.cls-59{fill:#d8cae3;}.cls-60{fill:#aa97c7;}.cls-61{fill:#baa8d0;}.cls-62{fill:#72be70;}.cls-63{fill:#ededee;}.cls-64{fill:#f4ea2e;}.cls-65{fill:#e4dced;}.cls-66{fill:#ef846a;}.cls-67{fill:#f1947c;}.cls-68{fill:#e72121;}.cls-69{fill:#e83f2d;}.cls-70{fill:#ed7458;}.cls-71{fill:#ea523b;}.cls-72{fill:#eb6348;}.cls-73{fill:#f5b2a0;}.cls-19{font-size:7.01px;}</style><clipPath id="clippath"><rect class="cls-22" x="21.84" y="22.95" width="79.17" height="70.7"/></clipPath><clipPath id="clippath-1"><rect class="cls-22" x="73.86" y="138.83" width="52.34" height="59.02"/></clipPath><clipPath id="clippath-2"><rect class="cls-22" x="134.05" y="145.3" width="43.66" height="43.72"/></clipPath><clipPath id="clippath-3"><rect class="cls-22" x="334.09" y="124.28" width="77.3" height="77.38" transform="translate(-6.07 311.3) rotate(-45)"/></clipPath></defs><polygon class="cls-38" points="310.9 355.06 251.18 320.58 251.18 251.63 310.9 217.16 370.61 251.63 370.61 320.58 310.9 355.06"/><text class="cls-9" transform="translate(251.68 320.42)"><tspan x="0" y="0">massConverter</tspan></text><path class="cls-18" d="m308.55,287.09v-5.56c0-.46-.01-.97-.09-1.47-.53-3.33-3.46-5.94-6.68-5.94-1.31.01-2.64.01-3.96.01h-14.8c-.41-.01-.8.03-1.17.12-3.18.74-5.42,3.62-5.44,7.01v13.39c0,1.94.66,3.62,1.96,5.01,1.33,1.42,2.88,2.15,4.59,2.15,3.63.01,6.96.03,10.17.03s6.05-.01,8.88-.03c1.79,0,3.38-.78,4.73-2.31,1.23-1.39,1.82-3.06,1.82-5.1-.01-2.43-.01-4.92-.01-7.32h0Zm-21.33-20.55l9.28-9.63.03-.03h-6.52c-.12,0-.19-.01-.2-.01-.01-.01-.04-.09-.04-.27,0-.49.01-.94.07-1.39.17-1.75.6-3.39,1.25-4.88.82-1.92,2.02-3.63,3.54-5.06,1.35-1.27,2.85-2.25,4.44-2.9,1.5-.6,2.81-.9,4.16-.98l1.26-.07h.01v-5.77l-1.45.11c-.88.05-1.63.16-2.32.29-3.77.77-7.09,2.51-9.89,5.17-2.81,2.67-4.79,5.99-5.86,9.88-.48,1.68-.72,3.51-.73,5.42,0,.19-.01.33-.05.44-.03.01-.12.04-.37.04h-5.83l9.23,9.64Zm55.48-19.57v-4.2c-.01-.4-.04-.76-.08-1.11-.46-3.3-3.45-5.99-6.63-5.99-6.23-.01-12.56-.01-18.68-.01-.38,0-.78.04-1.19.12-3.21.66-5.54,3.62-5.54,7.01v13.46c0,.4.03.73.07,1.03.44,3.35,3.43,6.09,6.7,6.09h.01c1.39-.01,2.76-.01,3.9-.01h14.62c1.18.01,2.2-.25,3.12-.78,2.41-1.38,3.66-3.45,3.69-6.15.05-3.05.04-6.09.03-9.44h0Zm-10.45,24l-9.37,9.61-.03.03h6.52c.29,0,.33,0,.33.42.01,1.22-.17,2.53-.56,4-.82,3.1-2.51,5.74-4.97,7.82-1.59,1.35-3.39,2.31-5.36,2.82-.97.26-1.7.41-2.53.45l-1.29.05h-.01v5.91l1.56-.26c.13-.03.28-.03.41-.04l.46-.04c2.21-.24,4.35-.9,6.52-2.03,2.76-1.42,5.2-3.49,7.03-5.98,2.69-3.63,4.11-7.77,4.23-12.29.01-.49.05-.72.08-.81.17-.04.56-.04.69-.04h5.5l-9.23-9.64Zm0,0"/><polygon class="cls-32" points="60.71 139.05 1 104.58 1 35.63 60.71 1.16 120.42 35.63 120.42 104.58 60.71 139.05"/><text class="cls-16" transform="translate(11.88 111.95)"><tspan x="0" y="0">tidyMass</tspan></text><g class="cls-43"><path class="cls-18" d="m94.48,22.99H28.1c-3.48,0-6.27,2.79-6.27,6.27v43.41c0,3.48,2.79,6.27,6.27,6.27h66.62c3.48,0,6.27-2.79,6.27-6.27V29.26c-.23-3.48-3.02-6.27-6.5-6.27h0Zm-33.19,52.69c-1.63,0-3.25-1.39-3.25-3.25s1.39-3.25,3.25-3.25c1.62,0,3.25,1.39,3.25,3.25s-1.62,3.25-3.25,3.25h0Zm34.82-9.05H26.47V27.87h69.63v38.76Zm0,0"/></g><rect class="cls-18" x="55.95" y="78" width="10.91" height="13.93"/><path class="cls-18" d="m83.81,93.56h-45.03v-1.16c0-2.79,2.32-4.87,4.87-4.87h35.05c2.79,0,4.87,2.32,4.87,4.87.23,0,.23,1.16.23,1.16h0Zm0,0"/><rect class="cls-18" x="27.11" y="28.59" width="68.26" height="37.14"/><path class="cls-26" d="m28.19,64.58h2.04s2.29-45.39,4.84,0h1.91"/><path class="cls-27" d="m36.99,64.58h2.58s2.9-61.43,6.13,0h2.42"/><path class="cls-25" d="m48.12,64.58h2.76s3.11-45.39,6.56,0h2.59"/><path class="cls-28" d="m59.99,64.58h2.8s3.16-76.44,6.66,0h2.63"/><line class="cls-29" x1="73.01" y1="64.58" x2="94.56" y2="64.58"/><line class="cls-29" x1="75.83" y1="64.2" x2="75.83" y2="40.98"/><line class="cls-29" x1="82.34" y1="64.38" x2="82.34" y2="54.18"/><line class="cls-29" x1="87.61" y1="64.38" x2="87.61" y2="43.27"/><line class="cls-29" x1="92.89" y1="64.56" x2="92.89" y2="31.31"/><polygon class="cls-42" points="185.08 139.05 125.36 104.58 125.36 35.63 185.08 1.15 244.79 35.63 244.79 104.58 185.08 139.05"/><text class="cls-12" transform="translate(132.43 108.04)"><tspan x="0" y="0">massDataset</tspan></text><rect class="cls-68" x="148.75" y="47.09" width="6.47" height="6.47"/><rect class="cls-21" x="148.75" y="47.09" width="6.47" height="6.47"/><rect class="cls-69" x="148.75" y="53.56" width="6.47" height="6.47"/><rect class="cls-21" x="148.75" y="53.56" width="6.47" height="6.47"/><rect class="cls-71" x="148.75" y="60.02" width="6.47" height="6.47"/><rect class="cls-21" x="148.75" y="60.02" width="6.47" height="6.47"/><rect class="cls-72" x="148.75" y="66.49" width="6.47" height="6.47"/><rect class="cls-21" x="148.75" y="66.49" width="6.47" height="6.47"/><rect class="cls-70" x="148.75" y="72.95" width="6.47" height="6.47"/><rect class="cls-21" x="148.75" y="72.95" width="6.47" height="6.47"/><rect class="cls-66" x="155.21" y="47.09" width="6.47" height="6.47"/><rect class="cls-21" x="155.21" y="47.09" width="6.47" height="6.47"/><rect class="cls-67" x="155.21" y="53.56" width="6.47" height="6.47"/><rect class="cls-21" x="155.21" y="53.56" width="6.47" height="6.47"/><rect class="cls-47" x="155.21" y="60.02" width="6.47" height="6.47"/><rect class="cls-21" x="155.21" y="60.02" width="6.47" height="6.47"/><rect class="cls-73" x="155.21" y="66.49" width="6.47" height="6.47"/><rect class="cls-21" x="155.21" y="66.49" width="6.47" height="6.47"/><rect class="cls-49" x="155.21" y="72.95" width="6.47" height="6.47"/><rect class="cls-21" x="155.21" y="72.95" width="6.47" height="6.47"/><rect class="cls-46" x="161.68" y="47.09" width="6.47" height="6.47"/><rect class="cls-21" x="161.68" y="47.09" width="6.47" height="6.47"/><rect class="cls-48" x="161.68" y="53.56" width="6.47" height="6.47"/><rect class="cls-21" x="161.68" y="53.56" width="6.47" height="6.47"/><rect class="cls-63" x="161.68" y="60.02" width="6.47" height="6.47"/><rect class="cls-21" x="161.68" y="60.02" width="6.47" height="6.47"/><rect class="cls-65" x="161.68" y="66.49" width="6.47" height="6.47"/><rect class="cls-21" x="161.68" y="66.49" width="6.47" height="6.47"/><rect class="cls-59" x="161.68" y="72.95" width="6.47" height="6.47"/><rect class="cls-21" x="161.68" y="72.95" width="6.47" height="6.47"/><rect class="cls-58" x="168.14" y="47.09" width="6.47" height="6.47"/><rect class="cls-21" x="168.14" y="47.09" width="6.47" height="6.47"/><rect class="cls-61" x="168.14" y="53.56" width="6.47" height="6.47"/><rect class="cls-21" x="168.14" y="53.56" width="6.47" height="6.47"/><rect class="cls-60" x="168.14" y="60.02" width="6.47" height="6.47"/><rect class="cls-21" x="168.14" y="60.02" width="6.47" height="6.47"/><rect class="cls-54" x="168.14" y="66.49" width="6.47" height="6.47"/><rect class="cls-21" x="168.14" y="66.49" width="6.47" height="6.47"/><rect class="cls-50" x="168.14" y="72.95" width="6.47" height="6.47"/><rect class="cls-21" x="168.14" y="72.95" width="6.47" height="6.47"/><rect class="cls-53" x="174.61" y="47.09" width="6.47" height="6.47"/><rect class="cls-21" x="174.61" y="47.09" width="6.47" height="6.47"/><rect class="cls-52" x="174.61" y="53.56" width="6.47" height="6.47"/><rect class="cls-21" x="174.61" y="53.56" width="6.47" height="6.47"/><rect class="cls-51" x="174.61" y="60.02" width="6.47" height="6.47"/><rect class="cls-21" x="174.61" y="60.02" width="6.47" height="6.47"/><rect class="cls-55" x="174.61" y="66.49" width="6.47" height="6.47"/><rect class="cls-21" x="174.61" y="66.49" width="6.47" height="6.47"/><rect class="cls-57" x="174.61" y="72.95" width="6.47" height="6.47"/><rect class="cls-21" x="174.61" y="72.95" width="6.47" height="6.47"/><text class="cls-19" transform="translate(152.2 34.71)"><tspan x="0" y="0">Sample</tspan><tspan x="-6.81" y="8.41">Information</tspan></text><text class="cls-19" transform="translate(135.03 76.15) rotate(-90)"><tspan class="cls-78" x="0" y="0">V</tspan><tspan x="4.03" y="0">ariable</tspan><tspan x="-5.96" y="8.41">Information</tspan></text><path class="cls-18" d="m195.24,59.58c.06-.07.16-.08.23-.03l4.42,3.29s.04.03.05.05h0c.05.06.08.15.07.23-.01.08-.05.16-.12.2l-4.42,3.29s-.02.09-.06.12c-.07.05-.17.04-.23-.03-.03-.03-.04-.07-.03-.11,0-.04.03-.08.06-.1v-1.56s.02-.09.06-.12l2.32-1.73-2.32-1.73s-.06-.07-.06-.12v-1.56s.01-.07.03-.09h0Zm-8.59-.06c.09,0,.16.07.16.15v1.56s-.02.09-.06.12l-2.32,1.73,2.32,1.73s.06.07.06.12v1.56s-.01.07-.03.09c-.06.07-.16.08-.23.03l-4.42-3.29c-.08-.06-.12-.15-.12-.24s.05-.19.12-.24l4.42-3.29s.06-.03.1-.03h0Zm0,0"/><path class="cls-18" d="m194.03,56.49h-1.36c-.07,0-.13.04-.15.1h0s-4.67,12.9-4.67,12.9c-.01.04,0,.08,0,.12.02.04.05.06.09.08.02,0,.04,0,.05,0h1.37c.07,0,.13-.04.15-.1h0s.01-.04.01-.04l4.65-12.85s0-.08-.01-.12c-.02-.04-.05-.06-.09-.08-.02,0-.03,0-.05,0h0Zm0,0"/><path class="cls-45" d="m221.95,75.37c-10.97,0-19.86-5.96-19.86-13.3s8.89-13.3,19.86-13.3,19.86,5.96,19.86,13.3-8.89,13.3-19.86,13.3Zm3.04-21.4c-8.34,0-15.1,4.07-15.1,9.09s6.76,9.09,15.1,9.09,14.49-2.78,14.49-9.09-6.15-9.09-14.49-9.09Z"/><path class="cls-15" d="m232.34,69.37s1.2.36,1.9.72c.24.12.66.37.96.69.3.31.44.63.44.63l4.74,7.99h-7.66s-3.58-6.72-3.58-6.72c0,0-.73-1.26-1.18-1.63-.38-.3-.54-.41-.91-.41h-1.82v8.76s-6.77,0-6.77,0v-22.37h13.61s6.2.11,6.2,6.01-5.92,6.34-5.92,6.34Zm-2.95-7.49h-4.1s0,3.8,0,3.8h4.1s1.9,0,1.9-1.94-1.9-1.86-1.9-1.86Z"/><polygon class="cls-36" points="247.05 246.96 187.34 212.49 187.34 143.54 247.05 109.06 306.76 143.54 306.76 212.49 247.05 246.96"/><text class="cls-5" transform="translate(186.27 211.87)"><tspan x="0" y="0">massCleaner</tspan></text><path class="cls-64" d="m262.94,187.93c-2.17,0-3.92,1.76-3.92,3.92s1.76,3.92,3.92,3.92,3.92-1.76,3.92-3.92c0-1.04-.41-2.04-1.15-2.77-.74-.74-1.73-1.15-2.77-1.15h0Zm11.74-9.13c-1.59-.01-3.03.94-3.65,2.41-.61,1.47-.28,3.16.85,4.29,1.13,1.13,2.82,1.46,4.29.85,1.47-.61,2.42-2.05,2.41-3.65-.01-2.16-1.77-3.9-3.92-3.9h.03Zm-1.23,11.74c-2.17,0-3.92,1.76-3.92,3.92s1.76,3.92,3.92,3.92,3.92-1.76,3.92-3.92c0-1.04-.41-2.04-1.15-2.77-.74-.74-1.73-1.15-2.77-1.15h0Zm-.44-46.93l5.56-5.67-11.31-11.31-5.67,5.67c-2.08-2.08-5.46-2.08-7.54,0l18.85,18.85c2.08-2.08,2.08-5.46,0-7.54h.1Zm-68.36,10.26c-1.03-.2-2.09.25-2.65,1.14-.57.89-.53,2.03.09,2.89,1.85,3.09,3.86,6.09,6.03,8.98l14.05-1.15c1.59,0,1.97,1.72.64,2.95l-7.49,6.87c3,3.26,6.22,6.31,9.62,9.15l8.05-2.56c1.51-.46,2.21,1.21,1.15,2.69l-3.18,4.44c2.08,1.49,4.28,2.9,6.59,4.26,3.05,1.8,6.95,1.1,9.18-1.64,9.35-11.48,16.33-24.7,20.51-38.9l-15.05-15.03s-24.49,17.95-47.64,15.9l.1.03Zm0,0"/><polygon class="cls-34" points="122.42 246.96 62.71 212.49 62.71 143.54 122.42 109.06 182.14 143.54 182.14 212.49 122.42 246.96"/><text class="cls-10" transform="translate(64.08 212.06)"><tspan x="0" y="0">massDatabase</tspan></text><g class="cls-75"><path class="cls-6" d="m114.1,182.8v-7.12h4.91v7.12h7.12v4.91h-7.12v7.12h-4.91v-7.12h-7.12v-4.91h7.12Zm11.29-10.64h-22.09v5.12h-29.45v-17.92h51.55v12.81h0Zm-22.09,7.68v17.93h-29.45v-17.93h29.45Zm-29.45-40.98h51.55v17.93h-51.55v-17.93Zm7.73,7.68v2.56h5.15v-2.56h-5.15Zm0,20.49v2.56h5.15v-2.56h-5.15Zm0,20.49v2.56h5.15v-2.56h-5.15Zm0,0"/></g><g class="cls-77"><path class="cls-6" d="m177.57,147.7l-2.27-2.27c-.17-.16-.44-.16-.61,0l-4.07,4.07c-1.77-1.2-3.86-1.84-6-1.84-2.74,0-5.48,1.04-7.57,3.13l-5.45,5.45c-.17.17-.17.44,0,.6l14.54,14.54c.09.09.19.12.3.12.11,0,.22-.04.3-.12l5.45-5.45c3.62-3.63,4.17-9.31,1.3-13.56l4.07-4.07c.16-.17.16-.44,0-.61h0Zm-18.13,21.29c-.17-.17-.44-.17-.61,0l-3.56,3.56-4.83-4.83,3.57-3.57c.17-.17.17-.44,0-.61l-1.95-1.95c-.17-.16-.44-.16-.6,0l-3.57,3.57-2.3-2.3c-.08-.08-.19-.12-.3-.12-.11,0-.22.04-.31.12l-5.45,5.45c-3.62,3.63-4.17,9.31-1.3,13.56l-4.07,4.07c-.17.17-.17.44,0,.6l2.27,2.27c.09.09.19.12.3.12.11,0,.22-.04.3-.12l4.07-4.07c1.77,1.2,3.86,1.84,6,1.84,2.74,0,5.48-1.04,7.57-3.14l5.45-5.45c.17-.17.17-.44,0-.61l-2.3-2.3,3.57-3.57c.17-.17.17-.44,0-.61l-1.96-1.94Zm0,0"/></g><polygon class="cls-33" points="310.12 139.05 250.41 104.58 250.41 35.63 310.12 1.15 369.83 35.63 369.83 104.58 310.12 139.05"/><path class="cls-18" d="m315.63,68.99c-.16,0-.32-.04-.46-.1-.13-.06-.17-.2-.28-.29-.44-.16-.91-.29-1.41-.29-2.34,0-4.24,1.9-4.25,4.24,0,2.34,1.9,4.24,4.25,4.25,2.34,0,4.24-1.9,4.25-4.25,0-1.53-.86-2.82-2.09-3.57"/><path class="cls-18" d="m324.8,52.99c-.3,0-.55-.14-.84-.17l-6.37,14.14c1.75,1.29,2.96,3.27,2.96,5.6,0,3.91-3.17,7.07-7.08,7.08-3.91,0-7.07-3.17-7.08-7.08,0-3.91,3.17-7.07,7.08-7.07.54,0,1.03.19,1.54.31l6.26-13.89c-1.66-.98-2.81-2.57-3.24-4.49l-16.02-2.07c-1.02,2.66-3.55,4.57-6.57,4.57-3.9,0-7.08-3.18-7.08-7.08s3.17-7.08,7.08-7.08c.88,0,1.71.21,2.5.5l8.47-13.14c-1.36-1.32-2.13-3.14-2.13-5.04,0-3.9,3.17-7.08,7.08-7.08s7.08,3.17,7.08,7.08c0,3.91-3.17,7.07-7.08,7.08-.88-.01-1.74-.19-2.55-.52l-8.46,13.12c1.3,1.26,2.06,2.98,2.12,4.79l15.54,2.01c.67-3.23,3.38-5.71,6.8-5.71,3.91,0,7.07,3.17,7.08,7.08,0,3.91-3.17,7.07-7.08,7.08"/><path class="cls-18" d="m311.35,22.32c2.34,0,4.25-1.91,4.25-4.25s-1.9-4.25-4.25-4.25-4.25,1.91-4.25,4.25,1.92,4.25,4.25,4.25m-15.91,16.27c-2.34,0-4.24,1.9-4.25,4.25,0,2.34,1.9,4.24,4.25,4.25,2.34,0,4.24-1.9,4.25-4.25,0-2.34-1.9-4.24-4.25-4.25m29.36,3.08c-2.34,0-4.24,1.91-4.25,4.25,0,2.34,1.9,4.24,4.25,4.25,2.34,0,4.24-1.9,4.24-4.25,0-2.34-1.9-4.24-4.24-4.25"/><text class="cls-4" transform="translate(249.73 103.96)"><tspan x="0" y="0">massProcesser</tspan></text><polygon class="cls-39" points="372.16 247.74 312.45 213.26 312.45 144.31 372.16 109.84 431.87 144.31 431.87 213.26 372.16 247.74"/><text class="cls-17" transform="translate(325.71 218.62)"><tspan x="0" y="0">massQC</tspan></text><g class="cls-76"><path class="cls-18" d="m400.01,190.3c7.54-7.54,7.54-19.77,0-27.31-7.54-7.54-19.77-7.54-27.31,0-7.54,7.54-19.77,7.54-27.31,0-7.54-7.54-7.54-19.77,0-27.31,15.08-15.08,39.53-15.08,54.62,0,15.08,15.08,15.08,39.53,0,54.61h0Zm0,0"/><path class="cls-56" d="m345.39,135.68c-7.54,7.54-7.54,19.77,0,27.31,7.54,7.54,19.77,7.54,27.31,0,7.54-7.54,19.77-7.54,27.31,0,7.54,7.54,7.54,19.77,0,27.31-15.08,15.08-39.53,15.08-54.62,0-15.08-15.08-15.08-39.53,0-54.62h0Zm0,0"/></g><text class="cls-74" transform="translate(348.86 156.22)"><tspan x="0" y="0">Q</tspan></text><text class="cls-11" transform="translate(375.08 189.23)"><tspan x="0" y="0">c</tspan></text><polygon class="cls-41" points="186.27 355.06 126.56 320.58 126.56 251.63 186.27 217.16 245.99 251.63 245.99 320.58 186.27 355.06"/><text class="cls-2" transform="translate(133.42 325.63)"><tspan x="0" y="0">massStat</tspan></text><text class="cls-1" transform="translate(141.85 253.24)"><tspan x="0" y="0">01001010101001</tspan></text><text class="cls-1" transform="translate(127.88 264.3)"><tspan x="0" y="0">011001010110100010</tspan></text><text class="cls-1" transform="translate(127.94 275.96)"><tspan x="0" y="0">010010101010101110</tspan></text><text class="cls-1" transform="translate(127.94 287.48)"><tspan x="0" y="0">110101001110100111</tspan></text><text class="cls-1" transform="translate(127.94 298.99)"><tspan x="0" y="0">101010100011101010</tspan></text><path class="cls-44" d="m181.88,252.43c-2.63-4.55-8.47-6.12-12.95-3.53-.33.16-33.17,16.16-31.29,48.68.02.31.18.6.44.77.25.17,6.16,4.16,16.25,5.81,9.28,1.51,23.98,1.21,41.33-8.8,2.19-1.26,3.79-3.35,4.44-5.79.66-2.44.32-5.04-.95-7.23l-6.46-11.19,9.88-5.7.67,1.16c.27.46.85.64,1.33.39l23.02-11.73c1.85-1.06,3.21-2.82,3.75-4.89.56-2.08.27-4.25-.81-6.11-2.22-3.85-7.16-5.17-11.05-2.92l-21.62,14.04c-.45.29-.59.89-.32,1.35l.67,1.17-9.88,5.7-6.46-11.19Zm3.43,33.42"/><polygon class="cls-35" points="374.53 463.58 314.82 429.1 314.82 360.15 374.53 325.68 434.24 360.15 434.24 429.1 374.53 463.58"/><text class="cls-8" transform="translate(321.43 432.11)"><tspan x="0" y="0">mass</tspan><tspan class="cls-79" x="54.48" y="0">T</tspan><tspan x="65.29" y="0">ools</tspan></text><path class="cls-18" d="m359.58,361.14l44.25,44.25-5.95,5.95-43.36-43.36c1.55-2.38,3.23-4.67,5.05-6.84h0Zm0,0"/><path class="cls-18" d="m381.72,339.86c-8.74,3.31-16.86,9.13-23.7,16.8-2.85,3.19-5.49,6.71-7.85,10.5-3.75,6.01-6.82,12.7-9,19.88l-13.05-3.65c9.36-26.25,31.76-43.89,53.6-43.53h0Zm0,0"/><path class="cls-18" d="m393.27,337.64l-.1-.07c-.15-.1-.32-.18-.5-.24-.04-.01-.07-.03-.11-.04-.04-.01-.08-.02-.12-.03h0c-13.19-3.65-27.62-.79-40.64,8.06-12.84,8.73-22.82,22.31-28.14,38.3-.06.17-.11.33-.17.5-.36,1.03.14,2.17,1.15,2.59l.08.03s.09.03.14.04l.17.05h.02s16.92,4.74,16.92,4.74h.03c.19.06.37.09.56.09.23,0,.45-.04.67-.11.09-.03.17-.06.25-.11.52-.26.9-.72,1.07-1.27.02-.07.03-.14.04-.21-.01.06-.02.12-.03.18,1.86-6.65,4.49-12.89,7.75-18.53l44.12,44.12c.81.81,2.12.81,2.92,0l8.87-8.87c.39-.39.61-.91.61-1.46,0-.55-.22-1.07-.61-1.46l-45.89-45.89c8.52-9.04,18.96-15.07,29.96-16.71.01,0,.02,0,.03,0,.06,0,.11-.02.17-.03.05-.01.11-.03.16-.05l.16-.06s.09-.04.13-.06c.04-.02.08-.04.12-.06.05-.02.09-.05.14-.09l.09-.06s.06-.04.08-.07c.04-.03.08-.07.11-.11.03-.03.06-.06.09-.1.05-.05.09-.11.13-.17.04-.05.07-.1.1-.15.02-.04.04-.07.06-.11.12-.23.19-.48.22-.74,0-.04,0-.08,0-.12,0-.04,0-.09,0-.13,0-.04,0-.08,0-.12,0-.04,0-.08-.01-.13,0-.04-.01-.07-.02-.1,0-.05-.02-.09-.03-.13-.01-.04-.03-.09-.04-.13h0c-.08-.26-.22-.49-.4-.69-.06-.07-.12-.13-.19-.19-.04-.03-.07-.06-.11-.09h0Zm-48.64,52.1c0-.06,0-.13,0-.19,0,.06,0,.13,0,.19h0Zm0-.4c0-.06-.03-.12-.04-.18.01.06.03.12.04.18h0Zm-.09-.39c-.02-.06-.05-.11-.07-.17.02.06.05.11.07.17h0Zm-.16-.36c-.03-.06-.07-.11-.11-.16.04.05.08.1.11.16h0Zm-.22-.33c-.04-.05-.1-.1-.14-.14.05.05.1.09.14.14h0Zm8.83-21.71s0,0-.01,0c0,0,0,0,.01,0h0Zm50.85,38.84l-5.95,5.95-43.36-43.36c1.55-2.38,3.23-4.67,5.05-6.84l44.25,44.25h0Zm-45.82-48.73c-2.85,3.19-5.49,6.71-7.85,10.5-3.75,6.01-6.82,12.7-9,19.88l1.96.55s.02,0,.02,0c0,0-.02,0-.02,0l-1.96-.55-13.05-3.65c9.36-26.25,31.76-43.89,53.6-43.53-8.74,3.31-16.86,9.13-23.7,16.8h0Zm-14.14,31.32c-.06-.05-.13-.08-.19-.12.06.04.13.08.19.12h0Zm0,0"/><path class="cls-18" d="m323.67,383.61c-.06.17-.11.33-.17.5-.36,1.03.14,2.17,1.15,2.59-.99-.37-1.53-1.43-1.27-2.45.06-.23.16-.45.29-.65h0Zm1.2,3.16l.17.05c-.1-.02-.21-.05-.3-.09.04.01.09.03.14.04h0Zm-.21-.07l.08.03s-.05-.02-.08-.03h0Zm0,0"/><polygon class="cls-37" points="436.66 355.06 376.95 320.58 376.95 251.63 436.66 217.16 496.37 251.63 496.37 320.58 436.66 355.06"/><polygon class="cls-22" points="436.66 355.06 376.95 320.58 376.95 251.63 436.66 217.16 496.37 251.63 496.37 320.58 436.66 355.06"/><line class="cls-30" x1="393.94" y1="293.37" x2="478.6" y2="293.37"/><line class="cls-30" x1="402.25" y1="260.36" x2="402.25" y2="293.37"/><line class="cls-30" x1="432.42" y1="245.38" x2="432.42" y2="293.37"/><line class="cls-30" x1="450.04" y1="275.35" x2="450.04" y2="293.37"/><line class="cls-30" x1="470.7" y1="252.87" x2="470.7" y2="293.37"/><text class="cls-13" transform="translate(401.12 330.66)"><tspan x="0" y="0">metID</tspan></text><polygon class="cls-62" points="61.04 355.06 1.33 320.58 1.33 251.63 61.04 217.16 120.75 251.63 120.75 320.58 61.04 355.06"/><polygon class="cls-24" points="61.04 355.06 1.33 320.58 1.33 251.63 61.04 217.16 120.75 251.63 120.75 320.58 61.04 355.06"/><path class="cls-31" d="m8.63,258.75c16.99,0,16.99,22.8,33.99,22.8s16.99-22.8,33.99-22.8,16.99,22.8,33.99,22.8"/><path class="cls-7" d="m11.1,255.24c0,1.36-1.1,2.46-2.46,2.46s-2.46-1.1-2.46-2.46,1.1-2.46,2.46-2.46,2.46,1.1,2.46,2.46Z"/><path class="cls-7" d="m113.06,284.68c0,1.36-1.1,2.46-2.46,2.46s-2.47-1.1-2.47-2.46,1.1-2.46,2.47-2.46,2.46,1.1,2.46,2.46Z"/><path class="cls-7" d="m44.18,284.68c0,1.36-1.1,2.46-2.46,2.46s-2.47-1.1-2.47-2.46,1.1-2.46,2.47-2.46,2.46,1.1,2.46,2.46Z"/><path class="cls-7" d="m78.94,255.24c0,1.36-1.1,2.46-2.46,2.46s-2.47-1.1-2.47-2.46,1.1-2.46,2.47-2.46,2.46,1.1,2.46,2.46Z"/><text class="cls-14" transform="translate(1.04 320.12)"><tspan x="0" y="0">metNormalizer</tspan></text><polygon class="cls-40" points="248.65 463.58 188.94 429.1 188.94 360.15 248.65 325.68 308.36 360.15 308.36 429.1 248.65 463.58"/><circle class="cls-18" cx="220.35" cy="359.02" r="10.51"/><circle class="cls-18" cx="270.26" cy="363.2" r="6.32"/><circle class="cls-18" cx="247.01" cy="391.32" r="16.15"/><line class="cls-20" x1="220.35" y1="359.02" x2="247.01" y2="391.32"/><line class="cls-23" x1="247.01" y1="391.32" x2="270.26" y2="363.2"/><line class="cls-20" x1="220.35" y1="359.02" x2="197.19" y2="354.84"/><line class="cls-20" x1="220.35" y1="359.02" x2="270.26" y2="363.2"/><line class="cls-20" x1="270.26" y1="363.2" x2="282.92" y2="345.46"/><line class="cls-20" x1="270.26" y1="363.2" x2="308.36" y2="385.87"/><line class="cls-20" x1="220.35" y1="359.02" x2="222.97" y2="340.5"/><text class="cls-3" transform="translate(198.33 433.4)"><tspan x="0" y="0">metPath</tspan></text></svg>