<?xml version="1.0" encoding="utf-8"?>
<!-- Generator: Adobe Illustrator 27.8.1, SVG Export Plug-In . SVG Version: 6.00 Build 0)  -->
<svg version="1.1" id="Layer_1" xmlns="http://www.w3.org/2000/svg" xmlns:xlink="http://www.w3.org/1999/xlink" x="0px" y="0px"
	 viewBox="0 0 504 504" style="enable-background:new 0 0 504 504;" xml:space="preserve">
<style type="text/css">
	.st0{fill:#005C78;stroke:#000000;stroke-width:2;stroke-miterlimit:10;}
	.st1{fill:#FBE0EC;stroke:#FFFFFF;stroke-miterlimit:10;}
	.st2{fill:#FDEDE7;stroke:#FFFFFF;stroke-miterlimit:10;}
	.st3{fill:#C6E3C6;stroke:#FFFFFF;stroke-miterlimit:10;}
	.st4{fill:#F19599;stroke:#FFFFFF;stroke-miterlimit:10;}
	.st5{fill:#DAD9ED;stroke:#FFFFFF;stroke-miterlimit:10;}
	.st6{fill:#A6D2D3;stroke:#EFF7F8;stroke-miterlimit:10;}
	.st7{fill:#FFFFFF;}
	.st8{font-family:'HelveticaNeue-BoldItalic';}
	.st9{font-size:40px;}
</style>
<polygon class="st0" points="243.9,409.9 90.4,321.3 90.4,144.2 243.9,55.6 397.3,144.2 397.3,321.3 "/>
<g>
	<path class="st1" d="M219.2,201.1h-89.5c-5.3,0-9.7-4.4-9.7-9.7v-5.5c0-5.3,4.4-9.7,9.7-9.7h89.5c5.3,0,9.7,4.4,9.7,9.7v5.5
		C228.9,196.7,224.5,201.1,219.2,201.1z"/>
	<path class="st2" d="M237.7,234.8h-89.5c-5.3,0-9.7-4.4-9.7-9.7v-5.5c0-5.3,4.4-9.7,9.7-9.7h89.5c5.3,0,9.7,4.4,9.7,9.7v5.5
		C247.4,230.4,243,234.8,237.7,234.8z"/>
	<path class="st3" d="M256.7,269.6h-89.5c-5.3,0-9.7-4.4-9.7-9.7v-5.5c0-5.3,4.4-9.7,9.7-9.7h89.5c5.3,0,9.7,4.4,9.7,9.7v5.5
		C266.4,265.2,262,269.6,256.7,269.6z"/>
	<path class="st4" d="M320.6,166.6h-89.5c-5.3,0-9.7-4.4-9.7-9.7v-5.5c0-5.3,4.4-9.7,9.7-9.7h89.5c5.3,0,9.7,4.4,9.7,9.7v5.5
		C330.4,162.2,326,166.6,320.6,166.6z"/>
	<path class="st5" d="M339.2,200.3h-89.5c-5.3,0-9.7-4.4-9.7-9.7v-5.5c0-5.3,4.4-9.7,9.7-9.7h89.5c5.3,0,9.7,4.4,9.7,9.7v5.5
		C348.9,195.9,344.5,200.3,339.2,200.3z"/>
	<path class="st6" d="M358.1,235.1h-89.5c-5.3,0-9.7-4.4-9.7-9.7v-5.5c0-5.3,4.4-9.7,9.7-9.7h89.5c5.3,0,9.7,4.4,9.7,9.7v5.5
		C367.9,230.7,363.5,235.1,358.1,235.1z"/>
</g>
<text transform="matrix(1 0 0 1 98.6472 321.7348)" class="st7 st8 st9">tidyMicrobiome</text>
</svg>
